<svg width="1920" height="1080" viewBox="0 0 1920 1080" fill="none" xmlns="http://www.w3.org/2000/svg">
<path fill-rule="evenodd" clip-rule="evenodd" d="M1644.34 46.66L1613.24 7.7L826.21 34.77L848.69 74.02L1644.34 46.66Z" fill="#28253E"/>
<path fill-rule="evenodd" clip-rule="evenodd" d="M1471.83 1080H1534.38L1386.96 999.82L1471.83 1080Z" fill="#28253E"/>
<path fill-rule="evenodd" clip-rule="evenodd" d="M783.26 0H731.33L855.01 125.32L783.26 0Z" fill="#28253E"/>
<path fill-rule="evenodd" clip-rule="evenodd" d="M1920 0H1632.68L1920 359.9V267.92L1807.78 151.69L1920 244.88V0Z" fill="#28253E"/>
<path fill-rule="evenodd" clip-rule="evenodd" d="M1920 395.04V367.72L1832.68 277.14L1920 395.04Z" fill="#28253E"/>
<path fill-rule="evenodd" clip-rule="evenodd" d="M0 723.14L226.62 1048.01L0 811.09V1080H63.1L48.14 1042.4L72.93 1080H327.13L0 603.96V723.14Z" fill="#28253E"/>
<path fill-rule="evenodd" clip-rule="evenodd" d="M126.06 752.09L159.58 800.87L171.26 717.99L109.11 99.46L778.66 76.43L740.46 37.72L65.05 60.95L130.98 717.19L126.06 752.09Z" fill="#28253E"/>
<path fill-rule="evenodd" clip-rule="evenodd" d="M1700.99 117.62L1828 854.88L1653.85 876.9L1543.01 800.4L1529.4 887.08L276.62 971.18L302.95 1009.5L1563.96 924.85L1572.65 869.46L1643.71 918.5L1874.53 889.32L1752.75 182.46L1700.99 117.62Z" fill="#28253E"/>
</svg>
